<svg width="230" height="54" viewBox="0 0 230 54" fill="none" xmlns="http://www.w3.org/2000/svg">
<path d="M11.1973 9.54688L12.9199 8L14.3965 9.61719L13.5 19.6543L11.7422 21.2012L10.3184 19.6543L11.1973 9.54688ZM13.7285 19.9531H22.5L23.9062 21.5L22.2188 23.1172H13.5L12.0059 21.5L13.7285 19.9531ZM22.5 23.3984L24.2051 21.8516L25.6641 23.3984L24.7676 33.3828L23.0801 35L21.6738 33.4531L22.5 23.3984ZM9.98438 23.3984L11.7422 21.7812L13.2012 23.3984L12.3223 33.3828L10.5469 35L9.05273 33.3828L9.98438 23.3984ZM24.6973 8H27L26.7891 10.373L16.3125 19.5137H13.8516L14.1504 17.2812L24.6973 8ZM41.7656 25.6309L41.9062 23.5391H44.1387L53.2266 32.9434L53.0332 35H50.7656L41.7656 25.6309ZM51.8906 11.5156L53.5781 9.91602L55.0547 11.5156L54.3691 19.6543L52.6113 21.2715L51.1348 19.6543L51.8906 11.5156ZM38.3906 23.3281L40.0781 21.7812L41.5547 23.3984L40.6582 33.3828L38.9531 35L37.4766 33.4531L38.3906 23.3281ZM42.1348 19.9531H50.9062L52.3301 21.5L50.5547 23.1172H41.8359L40.4297 21.5L42.1348 19.9531ZM39.6387 8.28125L42.5918 11.4453L41.9062 19.584L40.1484 21.2012L38.6719 19.6543L39.6387 8.28125ZM51.8906 8L53.2969 9.61719L51.5918 11.252H42.8906L39.9375 8H51.8906ZM71.2266 8H79.9453L81.4219 9.61719L79.6465 11.1641H70.9453L69.4688 9.61719L71.2266 8ZM67.4473 11.4453L69.1699 9.82812L70.6465 11.4453L69.9609 19.584L68.2031 21.2012L66.7266 19.584L67.4473 11.4453ZM79.9453 11.4453L81.7031 9.89844L83.1094 11.4453L82.4238 19.6543L80.7363 21.2012L79.2598 19.6543L79.9453 11.4453ZM70.1895 19.8828H78.9609L80.3848 21.5L78.6094 23.1172H69.8906L68.4844 21.5L70.1895 19.8828ZM78.8906 23.3984L80.666 21.7812L82.1426 23.3984L81.1934 33.3828L79.541 35L78.082 33.4531L78.8906 23.3984ZM66.4453 23.3281L68.2031 21.7812L69.6094 23.3281L68.7129 33.3828L67.0078 35L65.5312 33.3828L66.4453 23.3281ZM94.6406 23.3984L96.3984 21.7812L97.8926 23.3984L96.9785 33.3828L95.2207 35L93.8145 33.4531L94.6406 23.3984ZM98.4551 19.9531H107.174L108.58 21.5L106.875 23.1172H98.1738L96.6973 21.5L98.4551 19.9531ZM95.9062 8.28125L98.7891 11.5156L98.0859 19.6543L96.3984 21.2012L94.9395 19.6543L95.9062 8.28125ZM108.141 8L109.547 9.61719L107.842 11.252H99.1406L96.1172 8H108.141ZM120.938 8H133.682L135.158 9.54688L133.471 11.1641H120.639L119.162 9.54688L120.938 8ZM125.438 11.6035H128.619L127.846 19.9531L126.158 21.5703L124.682 19.9531L125.438 11.6035ZM124.383 23.1875L126.158 21.5703L127.564 23.1875L126.703 33.3828L124.963 35L123.486 33.4531L124.383 23.1875ZM149.08 31.8359H157.799L159.275 33.3828L157.5 35H148.799L147.305 33.3828L149.08 31.8359ZM147.533 9.54688L149.186 8L150.662 9.61719L149.766 19.9531L148.078 21.5703L146.584 19.9531L147.533 9.54688ZM159.961 9.61719L161.719 8L163.195 9.61719L162.299 19.9531L160.611 21.5703L159.135 19.9531L159.961 9.61719ZM146.32 23.1172L148.078 21.5703L149.467 23.1172L148.799 31.5371L147.041 33.084L145.617 31.5371L146.32 23.1172ZM152.367 24.5938L154.125 22.9766L155.602 24.5938L154.986 31.3965H151.805L152.367 24.5938ZM158.836 23.1875L160.541 21.5703L162 23.1875L161.297 31.5371L159.557 33.1543L158.08 31.5371L158.836 23.1875ZM177.451 31.8359H186.275L187.699 33.3828L185.924 35H174.041L177.451 31.8359ZM174.727 23.3984L176.484 21.7812L177.979 23.3984L177.293 31.5371L173.76 34.6309L174.727 23.3984ZM178.541 19.9531H187.26L188.736 21.5L186.961 23.1172H178.26L176.783 21.5L178.541 19.9531ZM188.227 8L189.633 9.61719L187.928 11.252H179.227L176.273 8H188.227ZM175.992 8.28125L178.875 11.5156L178.172 19.6543L176.484 21.2012L175.025 19.6543L175.992 8.28125ZM210.955 8L212.361 9.61719L210.674 11.252H201.955L199.002 8H210.955ZM198.721 8.28125L201.656 11.5156L200.883 19.6543L199.178 21.2012L197.701 19.6543L198.721 8.28125ZM201.164 19.9531H209.883L211.359 21.5L209.584 23.1172H200.883L199.389 21.5L201.164 19.9531ZM209.883 23.3984L211.641 21.8516L213.047 23.3984L212.361 31.5371L210.674 33.1543L209.197 31.5371L209.883 23.3984ZM197.385 23.3984L199.107 21.7812L200.584 23.3984L199.898 31.5371L196.365 34.6309L197.385 23.3984ZM200.127 31.8359H208.898L210.305 33.3828L208.547 35H196.664L200.127 31.8359ZM210.885 11.5156L212.607 9.98633L214.084 11.5156L213.398 19.6543L211.641 21.2715L210.164 19.6543L210.885 11.5156Z" fill="#1E1E1E"/>
<path d="M11.9284 51.2173V47.5773L12.1664 48.2213L8.00845 41.4173H9.11445L12.7684 47.3953H12.1804L15.8344 41.4173H16.8704L12.7124 48.2213L12.9504 47.5773V51.2173H11.9284ZM20.8492 51.2873C20.1398 51.2873 19.5005 51.1286 18.9312 50.8113C18.3712 50.4846 17.9278 50.0413 17.6012 49.4813C17.2745 48.912 17.1112 48.2633 17.1112 47.5353C17.1112 46.798 17.2745 46.1493 17.6012 45.5893C17.9278 45.0293 18.3712 44.5906 18.9312 44.2733C19.4912 43.956 20.1305 43.7973 20.8492 43.7973C21.5772 43.7973 22.2212 43.956 22.7812 44.2733C23.3505 44.5906 23.7938 45.0293 24.1112 45.5893C24.4378 46.1493 24.6012 46.798 24.6012 47.5353C24.6012 48.2633 24.4378 48.912 24.1112 49.4813C23.7938 50.0413 23.3505 50.4846 22.7812 50.8113C22.2118 51.1286 21.5678 51.2873 20.8492 51.2873ZM20.8492 50.4053C21.3812 50.4053 21.8525 50.2886 22.2632 50.0553C22.6738 49.8126 22.9958 49.4766 23.2292 49.0473C23.4718 48.6086 23.5932 48.1046 23.5932 47.5353C23.5932 46.9566 23.4718 46.4526 23.2292 46.0233C22.9958 45.594 22.6738 45.2626 22.2632 45.0293C21.8525 44.7866 21.3858 44.6653 20.8632 44.6653C20.3405 44.6653 19.8738 44.7866 19.4632 45.0293C19.0525 45.2626 18.7258 45.594 18.4832 46.0233C18.2405 46.4526 18.1192 46.9566 18.1192 47.5353C18.1192 48.1046 18.2405 48.6086 18.4832 49.0473C18.7258 49.4766 19.0525 49.8126 19.4632 50.0553C19.8738 50.2886 20.3358 50.4053 20.8492 50.4053ZM30.0885 51.2873C29.4632 51.2873 28.9172 51.1706 28.4505 50.9373C27.9839 50.704 27.6199 50.354 27.3585 49.8873C27.1065 49.4206 26.9805 48.8373 26.9805 48.1373V43.8673H27.9745V48.0253C27.9745 48.8093 28.1659 49.402 28.5485 49.8033C28.9405 50.1953 29.4865 50.3913 30.1865 50.3913C30.6999 50.3913 31.1432 50.2886 31.5165 50.0833C31.8992 49.8686 32.1885 49.5606 32.3845 49.1593C32.5899 48.758 32.6925 48.2773 32.6925 47.7173V43.8673H33.6865V51.2173H32.7345V49.2013L32.8885 49.5653C32.6552 50.1066 32.2912 50.5313 31.7965 50.8393C31.3112 51.138 30.7419 51.2873 30.0885 51.2873ZM36.8768 51.2173V43.8673H37.8288V45.8693L37.7308 45.5193C37.9361 44.9593 38.2814 44.5346 38.7668 44.2453C39.2521 43.9466 39.8541 43.7973 40.5728 43.7973V44.7633C40.5354 44.7633 40.4981 44.7633 40.4608 44.7633C40.4234 44.754 40.3861 44.7493 40.3488 44.7493C39.5741 44.7493 38.9674 44.9873 38.5288 45.4633C38.0901 45.93 37.8708 46.5973 37.8708 47.4653V51.2173H36.8768ZM48.498 51.2173L45.726 43.8673H46.678L49.198 50.6853H48.764L51.354 43.8673H52.208L54.77 50.6853H54.336L56.898 43.8673H57.808L55.022 51.2173H54.084L51.62 44.8053H51.914L49.436 51.2173H48.498ZM62.6416 51.2873C61.8763 51.2873 61.2043 51.1286 60.6256 50.8113C60.0469 50.4846 59.5943 50.0413 59.2676 49.4813C58.9409 48.912 58.7776 48.2633 58.7776 47.5353C58.7776 46.8073 58.9316 46.1633 59.2396 45.6033C59.5569 45.0433 59.9863 44.6046 60.5276 44.2873C61.0783 43.9606 61.6943 43.7973 62.3756 43.7973C63.0663 43.7973 63.6776 43.956 64.2096 44.2733C64.7509 44.5813 65.1756 45.02 65.4836 45.5893C65.7916 46.1493 65.9456 46.798 65.9456 47.5353C65.9456 47.582 65.9409 47.6333 65.9316 47.6893C65.9316 47.736 65.9316 47.7873 65.9316 47.8433H59.5336V47.1013H65.3996L65.0076 47.3953C65.0076 46.8633 64.8909 46.392 64.6576 45.9813C64.4336 45.5613 64.1256 45.2346 63.7336 45.0013C63.3416 44.768 62.8889 44.6513 62.3756 44.6513C61.8716 44.6513 61.4189 44.768 61.0176 45.0013C60.6163 45.2346 60.3036 45.5613 60.0796 45.9813C59.8556 46.4013 59.7436 46.882 59.7436 47.4233V47.5773C59.7436 48.1373 59.8649 48.632 60.1076 49.0613C60.3596 49.4813 60.7049 49.8126 61.1436 50.0553C61.5916 50.2886 62.1003 50.4053 62.6696 50.4053C63.1176 50.4053 63.5329 50.326 63.9156 50.1673C64.3076 50.0086 64.6436 49.766 64.9236 49.4393L65.4836 50.0833C65.1569 50.4753 64.7463 50.774 64.2516 50.9793C63.7663 51.1846 63.2296 51.2873 62.6416 51.2873ZM72.1828 51.2873C71.5388 51.2873 70.9601 51.1426 70.4468 50.8533C69.9335 50.5546 69.5275 50.1253 69.2288 49.5653C68.9301 49.0053 68.7808 48.3286 68.7808 47.5353C68.7808 46.7326 68.9301 46.056 69.2288 45.5053C69.5368 44.9453 69.9475 44.5206 70.4608 44.2313C70.9741 43.942 71.5481 43.7973 72.1828 43.7973C72.8828 43.7973 73.5081 43.956 74.0588 44.2733C74.6188 44.5813 75.0575 45.0153 75.3748 45.5753C75.6921 46.1353 75.8508 46.7886 75.8508 47.5353C75.8508 48.2726 75.6921 48.926 75.3748 49.4953C75.0575 50.0553 74.6188 50.494 74.0588 50.8113C73.5081 51.1286 72.8828 51.2873 72.1828 51.2873ZM68.3888 51.2173V40.8293H69.3828V46.0373L69.2428 47.5213L69.3408 49.0053V51.2173H68.3888ZM72.1128 50.4053C72.6355 50.4053 73.1021 50.2886 73.5128 50.0553C73.9235 49.8126 74.2501 49.4766 74.4928 49.0473C74.7355 48.6086 74.8568 48.1046 74.8568 47.5353C74.8568 46.9566 74.7355 46.4526 74.4928 46.0233C74.2501 45.594 73.9235 45.2626 73.5128 45.0293C73.1021 44.7866 72.6355 44.6653 72.1128 44.6653C71.5901 44.6653 71.1188 44.7866 70.6988 45.0293C70.2881 45.2626 69.9615 45.594 69.7188 46.0233C69.4855 46.4526 69.3688 46.9566 69.3688 47.5353C69.3688 48.1046 69.4855 48.6086 69.7188 49.0473C69.9615 49.4766 70.2881 49.8126 70.6988 50.0553C71.1188 50.2886 71.5901 50.4053 72.1128 50.4053ZM77.49 53.2613L78.106 50.6713L78.218 51.2733C78.0033 51.2733 77.8213 51.2033 77.672 51.0633C77.532 50.9233 77.462 50.7413 77.462 50.5173C77.462 50.2933 77.532 50.1113 77.672 49.9713C77.8213 49.8313 77.9987 49.7613 78.204 49.7613C78.4187 49.7613 78.5913 49.836 78.722 49.9853C78.862 50.1346 78.932 50.312 78.932 50.5173C78.932 50.592 78.9273 50.6666 78.918 50.7413C78.9087 50.816 78.89 50.9 78.862 50.9933C78.834 51.0866 78.7967 51.1986 78.75 51.3293L78.162 53.2613H77.49ZM88.5589 51.2873C87.8495 51.2873 87.2102 51.1286 86.6409 50.8113C86.0809 50.4846 85.6375 50.0413 85.3109 49.4813C84.9842 48.912 84.8209 48.2633 84.8209 47.5353C84.8209 46.798 84.9842 46.1493 85.3109 45.5893C85.6375 45.0293 86.0809 44.5906 86.6409 44.2733C87.2009 43.956 87.8402 43.7973 88.5589 43.7973C89.2869 43.7973 89.9309 43.956 90.4909 44.2733C91.0602 44.5906 91.5035 45.0293 91.8209 45.5893C92.1475 46.1493 92.3109 46.798 92.3109 47.5353C92.3109 48.2633 92.1475 48.912 91.8209 49.4813C91.5035 50.0413 91.0602 50.4846 90.4909 50.8113C89.9215 51.1286 89.2775 51.2873 88.5589 51.2873ZM88.5589 50.4053C89.0909 50.4053 89.5622 50.2886 89.9729 50.0553C90.3835 49.8126 90.7055 49.4766 90.9389 49.0473C91.1815 48.6086 91.3029 48.1046 91.3029 47.5353C91.3029 46.9566 91.1815 46.4526 90.9389 46.0233C90.7055 45.594 90.3835 45.2626 89.9729 45.0293C89.5622 44.7866 89.0955 44.6653 88.5729 44.6653C88.0502 44.6653 87.5835 44.7866 87.1729 45.0293C86.7622 45.2626 86.4355 45.594 86.1929 46.0233C85.9502 46.4526 85.8289 46.9566 85.8289 47.5353C85.8289 48.1046 85.9502 48.6086 86.1929 49.0473C86.4355 49.4766 86.7622 49.8126 87.1729 50.0553C87.5835 50.2886 88.0455 50.4053 88.5589 50.4053ZM97.7982 51.2873C97.1729 51.2873 96.6269 51.1706 96.1602 50.9373C95.6935 50.704 95.3295 50.354 95.0682 49.8873C94.8162 49.4206 94.6902 48.8373 94.6902 48.1373V43.8673H95.6842V48.0253C95.6842 48.8093 95.8755 49.402 96.2582 49.8033C96.6502 50.1953 97.1962 50.3913 97.8962 50.3913C98.4095 50.3913 98.8529 50.2886 99.2262 50.0833C99.6089 49.8686 99.8982 49.5606 100.094 49.1593C100.3 48.758 100.402 48.2773 100.402 47.7173V43.8673H101.396V51.2173H100.444V49.2013L100.598 49.5653C100.365 50.1066 100.001 50.5313 99.5062 50.8393C99.0209 51.138 98.4515 51.2873 97.7982 51.2873ZM104.586 51.2173V43.8673H105.538V45.8693L105.44 45.5193C105.646 44.9593 105.991 44.5346 106.476 44.2453C106.962 43.9466 107.564 43.7973 108.282 43.7973V44.7633C108.245 44.7633 108.208 44.7633 108.17 44.7633C108.133 44.754 108.096 44.7493 108.058 44.7493C107.284 44.7493 106.677 44.9873 106.238 45.4633C105.8 45.93 105.58 46.5973 105.58 47.4653V51.2173H104.586ZM117.762 51.2873C117.034 51.2873 116.38 51.1286 115.802 50.8113C115.232 50.4846 114.784 50.0413 114.458 49.4813C114.131 48.912 113.968 48.2633 113.968 47.5353C113.968 46.798 114.131 46.1493 114.458 45.5893C114.784 45.0293 115.232 44.5906 115.802 44.2733C116.38 43.956 117.034 43.7973 117.762 43.7973C118.387 43.7973 118.952 43.9186 119.456 44.1613C119.96 44.404 120.356 44.768 120.646 45.2533L119.904 45.7573C119.652 45.384 119.339 45.1086 118.966 44.9313C118.592 44.754 118.186 44.6653 117.748 44.6653C117.225 44.6653 116.754 44.7866 116.334 45.0293C115.914 45.2626 115.582 45.594 115.34 46.0233C115.097 46.4526 114.976 46.9566 114.976 47.5353C114.976 48.114 115.097 48.618 115.34 49.0473C115.582 49.4766 115.914 49.8126 116.334 50.0553C116.754 50.2886 117.225 50.4053 117.748 50.4053C118.186 50.4053 118.592 50.3166 118.966 50.1393C119.339 49.962 119.652 49.6913 119.904 49.3273L120.646 49.8313C120.356 50.3073 119.96 50.6713 119.456 50.9233C118.952 51.166 118.387 51.2873 117.762 51.2873ZM123.018 51.2173V43.8673H123.97V45.8693L123.872 45.5193C124.078 44.9593 124.423 44.5346 124.908 44.2453C125.394 43.9466 125.996 43.7973 126.714 43.7973V44.7633C126.677 44.7633 126.64 44.7633 126.602 44.7633C126.565 44.754 126.528 44.7493 126.49 44.7493C125.716 44.7493 125.109 44.9873 124.67 45.4633C124.232 45.93 124.012 46.5973 124.012 47.4653V51.2173H123.018ZM133.007 51.2173V49.5933L132.965 49.3273V46.6113C132.965 45.986 132.788 45.5053 132.433 45.1693C132.088 44.8333 131.57 44.6653 130.879 44.6653C130.403 44.6653 129.951 44.7446 129.521 44.9033C129.092 45.062 128.728 45.272 128.429 45.5333L127.981 44.7913C128.355 44.474 128.803 44.2313 129.325 44.0633C129.848 43.886 130.399 43.7973 130.977 43.7973C131.929 43.7973 132.662 44.0353 133.175 44.5113C133.698 44.978 133.959 45.692 133.959 46.6533V51.2173H133.007ZM130.473 51.2873C129.923 51.2873 129.442 51.1986 129.031 51.0213C128.63 50.8346 128.322 50.5826 128.107 50.2653C127.893 49.9386 127.785 49.5653 127.785 49.1453C127.785 48.7626 127.874 48.4173 128.051 48.1093C128.238 47.792 128.537 47.54 128.947 47.3533C129.367 47.1573 129.927 47.0593 130.627 47.0593H133.161V47.8013H130.655C129.946 47.8013 129.451 47.9273 129.171 48.1793C128.901 48.4313 128.765 48.744 128.765 49.1173C128.765 49.5373 128.929 49.8733 129.255 50.1253C129.582 50.3773 130.039 50.5033 130.627 50.5033C131.187 50.5033 131.668 50.3773 132.069 50.1253C132.48 49.864 132.779 49.4906 132.965 49.0053L133.189 49.6913C133.003 50.1766 132.676 50.564 132.209 50.8533C131.752 51.1426 131.173 51.2873 130.473 51.2873ZM137.247 51.2173V42.9433C137.247 42.29 137.438 41.7626 137.821 41.3613C138.204 40.96 138.754 40.7593 139.473 40.7593C139.753 40.7593 140.024 40.7966 140.285 40.8713C140.546 40.946 140.766 41.0626 140.943 41.2213L140.607 41.9633C140.467 41.842 140.304 41.7533 140.117 41.6973C139.93 41.632 139.73 41.5993 139.515 41.5993C139.095 41.5993 138.773 41.716 138.549 41.9493C138.325 42.1826 138.213 42.528 138.213 42.9853V44.1053L138.241 44.5673V51.2173H137.247ZM135.931 44.6933V43.8673H140.481V44.6933H135.931ZM144.567 51.2873C143.877 51.2873 143.345 51.1006 142.971 50.7273C142.598 50.354 142.411 49.8266 142.411 49.1453V42.2433H143.405V49.0893C143.405 49.5186 143.513 49.85 143.727 50.0833C143.951 50.3166 144.269 50.4333 144.679 50.4333C145.118 50.4333 145.482 50.3073 145.771 50.0553L146.121 50.7693C145.925 50.9466 145.687 51.0773 145.407 51.1613C145.137 51.2453 144.857 51.2873 144.567 51.2873ZM141.095 44.6933V43.8673H145.645V44.6933H141.095Z" fill="#1E1E1E"/>
</svg>
