<svg width="230" height="38" viewBox="0 0 230 38" fill="none" xmlns="http://www.w3.org/2000/svg">
<path d="M11.1973 9.54688L12.9199 8L14.3965 9.61719L13.5 19.6543L11.7422 21.2012L10.3184 19.6543L11.1973 9.54688ZM13.7285 19.9531H22.5L23.9062 21.5L22.2188 23.1172H13.5L12.0059 21.5L13.7285 19.9531ZM22.5 23.3984L24.2051 21.8516L25.6641 23.3984L24.7676 33.3828L23.0801 35L21.6738 33.4531L22.5 23.3984ZM9.98438 23.3984L11.7422 21.7812L13.2012 23.3984L12.3223 33.3828L10.5469 35L9.05273 33.3828L9.98438 23.3984ZM24.6973 8H27L26.7891 10.373L16.3125 19.5137H13.8516L14.1504 17.2812L24.6973 8ZM41.7656 25.6309L41.9062 23.5391H44.1387L53.2266 32.9434L53.0332 35H50.7656L41.7656 25.6309ZM51.8906 11.5156L53.5781 9.91602L55.0547 11.5156L54.3691 19.6543L52.6113 21.2715L51.1348 19.6543L51.8906 11.5156ZM38.3906 23.3281L40.0781 21.7812L41.5547 23.3984L40.6582 33.3828L38.9531 35L37.4766 33.4531L38.3906 23.3281ZM42.1348 19.9531H50.9062L52.3301 21.5L50.5547 23.1172H41.8359L40.4297 21.5L42.1348 19.9531ZM39.6387 8.28125L42.5918 11.4453L41.9062 19.584L40.1484 21.2012L38.6719 19.6543L39.6387 8.28125ZM51.8906 8L53.2969 9.61719L51.5918 11.252H42.8906L39.9375 8H51.8906ZM71.2266 8H79.9453L81.4219 9.61719L79.6465 11.1641H70.9453L69.4688 9.61719L71.2266 8ZM67.4473 11.4453L69.1699 9.82812L70.6465 11.4453L69.9609 19.584L68.2031 21.2012L66.7266 19.584L67.4473 11.4453ZM79.9453 11.4453L81.7031 9.89844L83.1094 11.4453L82.4238 19.6543L80.7363 21.2012L79.2598 19.6543L79.9453 11.4453ZM70.1895 19.8828H78.9609L80.3848 21.5L78.6094 23.1172H69.8906L68.4844 21.5L70.1895 19.8828ZM78.8906 23.3984L80.666 21.7812L82.1426 23.3984L81.1934 33.3828L79.541 35L78.082 33.4531L78.8906 23.3984ZM66.4453 23.3281L68.2031 21.7812L69.6094 23.3281L68.7129 33.3828L67.0078 35L65.5312 33.3828L66.4453 23.3281ZM94.6406 23.3984L96.3984 21.7812L97.8926 23.3984L96.9785 33.3828L95.2207 35L93.8145 33.4531L94.6406 23.3984ZM98.4551 19.9531H107.174L108.58 21.5L106.875 23.1172H98.1738L96.6973 21.5L98.4551 19.9531ZM95.9062 8.28125L98.7891 11.5156L98.0859 19.6543L96.3984 21.2012L94.9395 19.6543L95.9062 8.28125ZM108.141 8L109.547 9.61719L107.842 11.252H99.1406L96.1172 8H108.141ZM120.938 8H133.682L135.158 9.54688L133.471 11.1641H120.639L119.162 9.54688L120.938 8ZM125.438 11.6035H128.619L127.846 19.9531L126.158 21.5703L124.682 19.9531L125.438 11.6035ZM124.383 23.1875L126.158 21.5703L127.564 23.1875L126.703 33.3828L124.963 35L123.486 33.4531L124.383 23.1875ZM149.08 31.8359H157.799L159.275 33.3828L157.5 35H148.799L147.305 33.3828L149.08 31.8359ZM147.533 9.54688L149.186 8L150.662 9.61719L149.766 19.9531L148.078 21.5703L146.584 19.9531L147.533 9.54688ZM159.961 9.61719L161.719 8L163.195 9.61719L162.299 19.9531L160.611 21.5703L159.135 19.9531L159.961 9.61719ZM146.32 23.1172L148.078 21.5703L149.467 23.1172L148.799 31.5371L147.041 33.084L145.617 31.5371L146.32 23.1172ZM152.367 24.5938L154.125 22.9766L155.602 24.5938L154.986 31.3965H151.805L152.367 24.5938ZM158.836 23.1875L160.541 21.5703L162 23.1875L161.297 31.5371L159.557 33.1543L158.08 31.5371L158.836 23.1875ZM177.451 31.8359H186.275L187.699 33.3828L185.924 35H174.041L177.451 31.8359ZM174.727 23.3984L176.484 21.7812L177.979 23.3984L177.293 31.5371L173.76 34.6309L174.727 23.3984ZM178.541 19.9531H187.26L188.736 21.5L186.961 23.1172H178.26L176.783 21.5L178.541 19.9531ZM188.227 8L189.633 9.61719L187.928 11.252H179.227L176.273 8H188.227ZM175.992 8.28125L178.875 11.5156L178.172 19.6543L176.484 21.2012L175.025 19.6543L175.992 8.28125ZM210.955 8L212.361 9.61719L210.674 11.252H201.955L199.002 8H210.955ZM198.721 8.28125L201.656 11.5156L200.883 19.6543L199.178 21.2012L197.701 19.6543L198.721 8.28125ZM201.164 19.9531H209.883L211.359 21.5L209.584 23.1172H200.883L199.389 21.5L201.164 19.9531ZM209.883 23.3984L211.641 21.8516L213.047 23.3984L212.361 31.5371L210.674 33.1543L209.197 31.5371L209.883 23.3984ZM197.385 23.3984L199.107 21.7812L200.584 23.3984L199.898 31.5371L196.365 34.6309L197.385 23.3984ZM200.127 31.8359H208.898L210.305 33.3828L208.547 35H196.664L200.127 31.8359ZM210.885 11.5156L212.607 9.98633L214.084 11.5156L213.398 19.6543L211.641 21.2715L210.164 19.6543L210.885 11.5156Z" fill="#1E1E1E"/>
</svg>
